<svg width="35" height="36" viewBox="0 0 35 36" fill="none" xmlns="http://www.w3.org/2000/svg">
<path d="M17.2256 17.704C14.2445 16.566 12.474 18.98 8.76579 20.3508C3.39843 22.3941 2.78579 25.903 4.90424 27.5669C7.02268 29.2309 10.1437 27.36 12.7183 28.6187C15.3261 29.6878 16.2401 33.2829 18.8869 33.576C21.5172 33.964 23.5738 31.0155 21.2278 25.6874C19.6272 22.1613 20.0637 19.1093 17.2256 17.704Z" fill="#FFF1A6"/>
<path d="M10.7111 11.9424C11.2673 15.0623 10.295 18.0039 8.55439 18.5148C6.7249 19.0092 4.80206 16.8853 4.24582 13.7653C3.68959 10.6454 4.66191 7.70378 6.40253 7.19297C8.23202 6.69857 10.1548 8.82244 10.7111 11.9424Z" fill="#FFF1A6"/>
<path d="M25.2193 18.276C22.6365 19.8706 21.4085 22.5048 22.3674 24.1617C23.3263 25.8186 26.1835 25.9518 28.7662 24.3571C31.3489 22.7624 32.5769 20.1283 31.6181 18.4714C30.5662 16.7973 27.709 16.6641 25.2193 18.276Z" fill="#FFF1A6"/>
<path d="M19.6286 9.36711C18.959 12.656 16.75 14.9367 14.8286 14.4784C12.9071 14.0201 11.9196 10.9421 12.5891 7.65317C13.2587 4.36423 15.4677 2.08355 17.3891 2.54188C19.3106 3.00021 20.2981 6.07817 19.6286 9.36711Z" fill="#FFF1A6"/>
<path d="M21.2244 9.94628C19.5606 12.569 19.6042 15.5071 21.1836 16.555C22.8529 17.6195 25.477 16.4029 27.1248 13.8717C28.7885 11.249 28.745 8.31085 27.1655 7.26296C25.6021 6.12351 22.8881 7.32353 21.2244 9.94628Z" fill="#FFF1A6"/>
</svg>
