<svg width="536" height="526" viewBox="0 0 536 526" fill="none" xmlns="http://www.w3.org/2000/svg">
<path d="M516.197 87.312C542.961 140.584 537.313 208.37 528.72 262.911C520.436 317.873 509.515 360.013 490.17 396.782C471.185 433.603 443.826 464.684 409.32 486.432C375.225 507.864 333.622 519.911 285.389 524.208C237.104 528.876 181.469 525.69 129.752 499.324C77.9843 473.329 29.7746 424.102 9.92723 363.165C-9.51006 301.911 -0.585021 228.947 38.2993 183.333C76.7735 138.036 145.207 120.088 205.458 87.003C266.069 53.9706 318.549 5.43175 374.582 0.382842C430.564 -4.29649 489.741 34.4619 516.197 87.312Z" fill="#F1C21B"/>
</svg>
