<svg width="39" height="43" viewBox="0 0 39 43" fill="none" xmlns="http://www.w3.org/2000/svg">
<path d="M18.7322 20.5492C14.7145 18.1781 12.1677 21.2202 6.99506 22.1807C-0.494921 23.7107 -1.38887 28.3816 1.5848 31.2699C4.44776 34.0351 8.74248 32.3078 12.3252 34.4048C15.9079 36.5018 17.1573 41.6686 20.8112 42.7956C24.4652 43.9227 27.3126 40.3757 24.1573 32.4593C21.943 27.0585 22.6471 23.0157 18.7322 20.5492Z" fill="#839AA9"/>
<path d="M10.341 11.8442C11.2345 15.9856 9.88187 19.7267 7.33514 19.8313C4.78841 19.9359 1.90965 16.7335 1.00823 12.3735C0.11471 8.23207 1.46735 4.49102 4.01408 4.38642C6.56081 4.28182 9.33674 7.57964 10.341 11.8442Z" fill="#839AA9"/>
<path d="M29.6782 23.493C26.119 24.9893 24.4342 28.3609 25.8024 30.932C27.1705 33.503 31.1329 34.3438 34.5813 32.7243C38.1405 31.228 39.8253 27.8564 38.4572 25.2854C37.1997 22.8374 33.2373 21.9967 29.6782 23.493Z" fill="#839AA9"/>
<path d="M22.2759 9.80325C21.2555 13.9138 18.2657 16.4632 15.5688 15.3515C12.8718 14.2399 11.4405 9.91987 12.461 5.80932C13.4814 1.69878 16.4712 -0.850604 19.1682 0.261042C21.7623 1.46814 23.1857 5.56953 22.2759 9.80325Z" fill="#839AA9"/>
<path d="M24.3402 11.0502C22.0147 14.3386 21.8484 18.56 24.2606 20.6139C26.5621 22.5446 30.3506 21.5132 32.7788 18.1294C35.1043 14.841 35.2706 10.6196 32.8584 8.56574C30.5569 6.63507 26.6656 7.76186 24.3402 11.0502Z" fill="#839AA9"/>
</svg>
