<svg width="43" height="36" viewBox="0 0 43 36" fill="none" xmlns="http://www.w3.org/2000/svg">
<path d="M21.9762 17.5414C17.3796 17.7491 16.916 21.6347 13.1616 25.2166C7.80017 30.5183 9.58 34.8582 13.5932 35.6406C17.4486 36.381 20.0646 32.639 24.1542 32.4395C28.2438 32.24 32.0612 35.8339 35.6868 34.7949C39.3124 33.7559 39.7519 29.2912 32.8779 24.4537C28.1374 21.1868 26.5394 17.468 21.9762 17.5414Z" fill="#839AA9"/>
<path d="M10.3527 14.8755C13.3234 17.8143 14.2231 21.6334 12.176 23.0928C10.129 24.5522 6.02485 23.4592 2.92977 20.344C-0.0409155 17.4052 -0.940573 13.5861 1.10649 12.1267C3.15354 10.6673 7.2242 11.8946 10.3527 14.8755Z" fill="#839AA9"/>
<path d="M32.6041 14.0717C30.4711 17.2264 30.8972 20.9194 33.4134 22.3053C35.9295 23.6913 39.6554 22.2495 41.6305 19.0528C43.7635 15.8981 43.3374 12.2052 40.8213 10.8192C38.463 9.47524 34.7371 10.917 32.6041 14.0717Z" fill="#839AA9"/>
<path d="M19.1099 6.75537C20.4831 10.7006 19.3881 14.4181 16.5613 14.9539C13.7345 15.4897 10.2233 12.6933 8.8501 8.74804C7.4769 4.80281 8.57186 1.08534 11.3987 0.549533C14.192 0.14799 17.5788 2.76811 19.1099 6.75537Z" fill="#839AA9"/>
<path d="M21.4871 6.67249C21.3393 10.6422 23.4777 14.2185 26.5773 14.6144C29.519 14.9683 32.0921 12.074 32.2734 7.97004C32.4213 4.00035 30.2828 0.424049 27.1832 0.0281372C24.2415 -0.325737 21.635 2.70281 21.4871 6.67249Z" fill="#839AA9"/>
</svg>
