<svg width="43" height="39" viewBox="0 0 43 39" fill="none" xmlns="http://www.w3.org/2000/svg">
<path d="M21.0858 18.25C17.2165 20.822 18.8376 24.4254 17.4532 29.4788C15.5733 36.8566 19.372 39.6855 23.2518 38.2738C26.9731 36.9079 27.2892 32.3086 30.724 30.0075C34.1589 27.7065 39.3324 28.8294 41.9288 26.0435C44.5252 23.2575 42.5819 19.1655 34.1163 18.5574C28.3141 18.1977 24.996 15.8116 21.0858 18.25Z" fill="#839AA9"/>
<path d="M9.64065 21.9927C13.7406 22.9895 16.5067 25.8259 15.495 28.1541C14.4832 30.4822 10.3632 31.6725 6.06381 30.5878C1.96381 29.591 -0.802294 26.7546 0.209456 24.4265C1.22121 22.0983 5.38219 21.0416 9.64065 21.9927Z" fill="#839AA9"/>
<path d="M28.476 9.71653C28.2722 13.5563 30.5629 16.53 33.4614 16.4198C36.3599 16.3095 38.8335 13.1228 38.8788 9.32879C39.0826 5.48902 36.7919 2.51531 33.8934 2.62556C31.1534 2.69003 28.6798 5.87676 28.476 9.71653Z" fill="#839AA9"/>
<path d="M12.992 10.4089C16.2335 13.108 17.2208 16.8945 15.0537 18.8293C12.8865 20.7641 8.39299 20.1719 5.1515 17.4728C1.91001 14.7738 0.922707 10.9872 3.08984 9.0524C5.29789 7.25116 9.59205 7.75565 12.992 10.4089Z" fill="#839AA9"/>
<path d="M15.0059 9.10002C16.9439 12.6119 20.6556 14.5934 23.5437 13.3228C26.2732 12.098 26.9934 8.25447 25.0144 4.60903C23.0763 1.09719 19.3646 -0.88434 16.4766 0.386252C13.747 1.61107 13.0678 5.58817 15.0059 9.10002Z" fill="#839AA9"/>
</svg>
