<svg width="43" height="32" viewBox="0 0 43 32" fill="none" xmlns="http://www.w3.org/2000/svg">
<path d="M39.4977 3.75441C38.1771 0.633408 34.5537 -0.835353 31.4327 0.485229C28.6813 1.64943 27.222 4.49414 27.7828 7.30717L11.1922 14.3271C9.56369 11.9659 6.50577 11.0325 3.75436 12.1967C0.633357 13.5173 -0.835405 17.1407 0.485179 20.2617C1.05859 21.6169 2.04897 22.6988 3.32838 23.3195C2.9004 24.711 2.96996 26.1341 3.54337 27.4893C4.86396 30.6103 8.48735 32.079 11.6084 30.7585C14.3598 29.5943 15.8191 26.7496 15.2582 23.9365L31.8078 16.934C33.4363 19.2952 36.4942 20.2285 39.2456 19.0643C42.3666 17.7438 43.8354 14.1204 42.5148 10.9994C41.9414 9.64419 40.951 8.56229 39.6716 7.94161C40.1407 6.53269 40.0711 5.10958 39.4977 3.75441ZM37.819 9.7423C38.9594 10.0345 39.8866 10.8526 40.3383 11.9203C41.155 13.8504 40.2548 16.0712 38.3247 16.8879C36.4357 17.6872 34.2496 16.8691 33.3919 14.9564C33.1313 14.3404 32.4473 14.0972 31.8313 14.3578L13.3928 22.1597C12.7768 22.4203 12.5336 23.1042 12.7358 23.6965C13.494 25.6029 12.6175 27.7653 10.6874 28.582C8.75733 29.3987 6.53654 28.4984 5.71986 26.5683C5.26808 25.5006 5.32647 24.2655 5.91083 23.2435C6.11141 22.9166 6.0956 22.5359 5.95659 22.2074C5.81758 21.8789 5.51431 21.6198 5.18104 21.5188C4.04064 21.2266 3.11344 20.4085 2.66167 19.3408C1.84499 17.4107 2.7452 15.1899 4.67529 14.3732C6.56432 13.5739 8.75036 14.392 9.6081 16.3047C9.86874 16.9207 10.5527 17.1639 11.1687 16.9033L29.6893 9.06664C30.3053 8.80599 30.5485 8.12207 30.3463 7.52977C29.5881 5.62337 30.4646 3.46102 32.3947 2.64434C34.3248 1.82766 36.5456 2.72787 37.3623 4.65796C37.8141 5.72568 37.7557 6.96083 37.1713 7.98279C36.9707 8.30975 36.9865 8.6904 37.1255 9.01893C37.1824 9.38221 37.4857 9.64123 37.819 9.7423Z" fill="#839AA9"/>
<path d="M17.9063 7.08015C18.5223 6.81951 18.8065 6.11821 18.5459 5.50222L17.3122 2.58655C17.0516 1.97056 16.3503 1.68628 15.7343 1.94693C15.1183 2.20757 14.834 2.90887 15.0946 3.52486L16.3284 6.44053C16.589 7.05652 17.2903 7.34079 17.9063 7.08015Z" fill="#839AA9"/>
<path d="M22.313 6.28078C22.512 6.29341 22.6526 6.28235 22.8169 6.21284C23.2275 6.03908 23.5339 5.61893 23.5418 5.17983L23.6617 2.03033C23.6822 1.39222 23.1578 0.839426 22.5023 0.777854C21.8642 0.757348 21.3114 1.28176 21.2498 1.93725L21.1299 5.08674C21.1094 5.72485 21.6338 6.27765 22.313 6.28078Z" fill="#839AA9"/>
<path d="M12.6009 9.76083C12.98 10.0846 13.4365 10.1336 13.8471 9.95979C14.0114 9.89029 14.1583 9.77972 14.2467 9.64546C14.6763 9.17317 14.6447 8.41186 14.1551 7.9412L11.811 5.83427C11.3387 5.40467 10.5774 5.43629 10.1068 5.92595C9.67716 6.39824 9.70878 7.15955 10.1984 7.63021L12.6009 9.76083Z" fill="#839AA9"/>
<path d="M25.1348 24.1635C24.5188 24.4242 24.2346 25.1255 24.4952 25.7415L25.7289 28.6571C25.9895 29.2731 26.6908 29.5574 27.3068 29.2967C27.9228 29.0361 28.2071 28.3348 27.9464 27.7188L26.7127 24.8031C26.4521 24.1872 25.7508 23.9029 25.1348 24.1635Z" fill="#839AA9"/>
<path d="M20.7279 24.963C20.0898 24.9425 19.537 25.4669 19.4754 26.1224L19.3555 29.2719C19.335 29.91 19.8594 30.4628 20.5149 30.5243C20.7139 30.537 20.8545 30.5259 21.0188 30.4564C21.4294 30.2826 21.7358 29.8625 21.7437 29.4234L21.8636 26.2739C21.9315 25.5189 21.4071 24.9661 20.7279 24.963Z" fill="#839AA9"/>
<path d="M30.4401 21.4829C29.9678 21.0533 29.2065 21.0849 28.7358 21.5746C28.3062 22.0469 28.3379 22.8082 28.8275 23.2788L31.1716 25.3858C31.5507 25.7095 32.0071 25.7585 32.4178 25.5847C32.582 25.5152 32.7289 25.4047 32.8174 25.2704C33.247 24.7981 33.2154 24.0368 32.7257 23.5661L30.4401 21.4829Z" fill="#839AA9"/>
</svg>
