<svg width="107" height="70" viewBox="0 0 107 70" fill="none" xmlns="http://www.w3.org/2000/svg">
<path d="M74.95 41.5148C72.4476 41.1073 69.9722 42.4556 68.9264 44.7935C68.7236 45.247 68.5858 45.717 68.5065 46.192C71.0891 44.9176 73.3465 43.3814 75.2951 41.5709L74.95 41.5148Z" fill="#124C5F"/>
<path d="M77.2717 18.8669C81.9637 15.7753 83.2926 9.41765 80.2399 4.66672C77.1872 -0.0842114 70.9089 -1.42935 66.2169 1.66226C61.525 4.75387 60.1961 11.1115 63.2488 15.8624C66.3015 20.6134 72.5798 21.9585 77.2717 18.8669Z" fill="#124C5F"/>
<path d="M95.876 21.4581C91.4924 15.9614 85.5387 15.8985 82.25 18.1406C78.9622 20.3813 79.2024 26.0746 81.9481 29.8972C82.0729 30.108 82.2054 30.3275 82.3352 30.5447C83.2813 27.6373 83.4147 25.5271 83.4161 25.4979C83.5125 23.0313 85.4882 21.1059 87.9149 21.1059C87.9713 21.1059 88.0276 21.1068 88.0839 21.1091C90.5665 21.2012 92.5121 23.3215 92.4206 25.836V25.8438L92.4179 25.8844C92.344 27.2924 91.8682 32.3538 88.8503 38.3688C88.5755 38.9209 88.2515 39.5259 87.8798 40.1665C88.5124 41.3902 89.1207 42.6404 89.6753 43.9102L85.8324 43.2851C83.2331 46.8111 79.2569 50.8112 73.3351 53.9453L90.5156 68.3461C91.5663 69.2271 92.8387 69.6565 94.1039 69.6565C95.7237 69.6565 97.3313 68.952 98.4456 67.59C100.428 65.1632 100.094 61.5682 97.6981 59.5602L93.5668 56.0957L94.9032 56.3138C95.3173 56.3809 95.7268 56.3973 96.1292 56.3736C97.0997 56.4206 98.241 56.077 99.6445 55.582C103.544 54.2059 107.964 51.7799 106.815 44.387C104.496 34.4558 101.858 29.0522 95.876 21.4581Z" fill="#124C5F"/>
<path d="M88.0475 37.9545C91.2916 31.4892 91.5011 26.1381 91.5205 25.8018C91.5935 23.7869 90.0413 22.0941 88.0516 22.0207C86.0651 21.9459 84.3957 23.5141 84.3178 25.5244L84.3173 25.5239C84.3115 25.7562 84.0109 30.1569 81.3783 35.116C78.7177 40.0825 73.9345 45.6627 64.2514 48.9273C62.3608 49.5588 61.3335 51.6225 61.9585 53.5374C62.4581 55.0714 63.8675 56.0442 65.381 56.0442C65.7554 56.0442 66.1361 55.9844 66.511 55.8594C78.35 51.9359 84.8341 44.4107 88.0475 37.9545Z" fill="#124C5F"/>
<path d="M40.5736 55.3159C42.2119 55.6308 44.1836 56.1509 44.7049 56.7098C46.1084 58.2096 46.7941 61.3072 48.614 61.5244C49.8855 61.6759 50.332 61.648 51.9071 60.6187C53.462 59.6003 51.9855 55.6353 51.6143 54.1118C51.088 51.95 52.3428 49.5756 52.3622 49.4305C52.378 49.3101 53.4589 47.0146 56.5836 47.8861C57.6748 48.1927 57.0359 46.15 55.3269 45.1293C53.2949 43.9174 51.8247 44.4823 50.3392 45.6622C47.4709 43.4393 42.9774 43.8732 40.4227 44.8414C40.0145 46.5264 39.8563 48.1566 39.8563 49.6564C39.855 51.9364 40.2154 53.9134 40.5736 55.3159ZM47.8566 50.5201C48.5243 50.0588 49.4353 50.2336 49.8913 50.9097C50.3464 51.5864 50.1738 52.5094 49.5061 52.9698C48.8365 53.4311 47.9264 53.2568 47.4704 52.5801C47.0158 51.904 47.1875 50.9809 47.8566 50.5201Z" fill="#124C5F"/>
<path d="M38.5813 44.7897C37.9162 44.7993 37.2827 44.7797 36.6785 44.7323C36.4668 44.6789 36.2478 44.6456 36.0185 44.6574C36.0045 44.6583 35.9919 44.6629 35.9779 44.6638C26.7868 43.6066 24.2848 36.566 13.547 43.8726C10.3038 42.9076 6.43705 40.833 3.50838 36.4058C2.91634 35.5156 1.72459 35.2825 0.848242 35.882C-0.0326127 36.4802 -0.265104 37.6861 0.329191 38.5767C3.11504 42.7452 6.55781 45.1872 9.78836 46.6176C9.75051 46.6979 9.71086 46.7932 9.67121 46.8845C8.84307 48.1461 8.19471 49.8082 7.77298 52.0234C7.71396 52.3469 5.08446 69.3402 9.21434 69.3402C13.3442 69.3402 14.4783 56.4853 16.7843 54.8395C17.1091 54.8687 23.2355 61.3692 28.4683 60.552C29.6943 60.3595 31.3542 59.5929 32.7374 58.7776L35.0011 67.954C35.2552 68.9838 36.164 69.6824 37.1832 69.6824C37.2945 69.6824 37.4076 69.6742 37.5206 69.6568C38.67 69.4821 39.4977 68.4573 39.4369 67.2815L38.8494 55.8556C38.4538 54.3312 38.0546 52.1758 38.0528 49.6563C38.0532 48.142 38.2006 46.4985 38.5813 44.7897Z" fill="#124C5F"/>
<path d="M58.6841 67.2318H58.1155L56.9549 63.5899H43.952L42.7914 67.2318H42.2218C41.7641 67.2318 41.3919 67.6082 41.3919 68.0727C41.3919 68.5367 41.7641 68.9132 42.2218 68.9132H58.6841C59.1419 68.9132 59.5141 68.5367 59.5141 68.0727C59.5141 67.6082 59.1415 67.2318 58.6841 67.2318Z" fill="#124C5F"/>
</svg>
