<svg width="87" height="94" viewBox="0 0 87 94" fill="none" xmlns="http://www.w3.org/2000/svg">
<path d="M56.9402 27.5032C56.7119 26.413 56.0885 25.5943 55.2312 25.2562C55.1699 25.232 55.1056 25.2293 55.0435 25.2103C55.6578 22.168 57.3902 11.1079 51.7144 4.63532C48.4248 0.884286 43.2915 -0.600258 36.4652 0.218484C36.3397 0.163287 36.2035 0.13109 36.0621 0.12649C30.7 -0.0620964 26.5968 1.54721 23.9067 4.90325C18.6365 11.4762 20.5447 22.5676 21.0943 25.1966C21.0134 25.2192 20.9303 25.2248 20.8509 25.2562C19.993 25.5943 19.3702 26.413 19.1414 27.5032C18.9375 28.4743 19.0511 29.596 19.461 30.6608C20.2116 32.614 21.7304 33.8616 23.189 33.8616C23.345 33.8616 23.5003 33.8467 23.6539 33.8175C24.891 37.8048 26.9547 41.1204 30.3645 43.1555V47.2432H28.5931V58.7723H47.4886V47.2432H45.7165V43.181C49.1324 41.1485 51.1978 37.8229 52.4341 33.8193C52.5857 33.8477 52.739 33.8616 52.8931 33.8616C54.35 33.8616 55.8694 32.614 56.6211 30.6614C57.0299 29.596 57.1435 28.4743 56.9402 27.5032ZM21.086 30.0197C20.8027 29.2827 20.7158 28.499 20.8475 27.87C20.952 27.3732 21.1836 27.0202 21.4834 26.9017C21.5646 26.8701 21.6532 26.8546 21.7474 26.8546C21.9176 26.8546 22.1062 26.9066 22.3008 27.0037C22.5006 28.7633 22.7844 30.4695 23.1796 32.0898C22.5121 32.0763 21.5777 31.2989 21.086 30.0197ZM46.7172 49.0095C44.9829 50.8558 41.7509 52.1004 38.0408 52.1004C34.3307 52.1004 31.0988 50.8558 29.3645 49.0095H31.2366C31.7181 49.0095 32.1087 48.6139 32.1087 48.1263V44.0372C33.8081 44.7452 35.7832 45.1872 38.0851 45.305C40.3497 45.1885 42.295 44.7529 43.9729 44.0577V48.1263C43.9729 48.6139 44.3635 49.0095 44.8449 49.0095H46.7172ZM52.071 26.0686C52.0136 26.6115 51.9558 27.154 51.8846 27.6759C51.7031 29.0063 51.4711 30.2624 51.1882 31.4484C51.0814 31.8959 50.9611 32.3256 50.8384 32.7515C49.7693 36.4612 48.0855 39.351 45.4852 41.1991C45.1012 41.4721 44.6854 41.7095 44.2608 41.937C42.5517 42.8525 40.5253 43.4146 38.0851 43.5411C35.6503 43.4158 33.6241 42.8644 31.9137 41.9648C31.4595 41.7259 31.0195 41.4714 30.6112 41.1816C28.0053 39.3318 26.3176 36.4469 25.2467 32.7451C25.1234 32.3189 25.0027 31.8889 24.8956 31.4412C24.6125 30.2579 24.38 29.0049 24.1984 27.6779C24.1269 27.1557 24.0687 26.6131 24.0111 26.0699C23.8572 24.6164 23.7474 23.0933 23.6806 21.4978C23.8847 20.2025 24.1836 19.1272 24.5397 18.2463C25.0763 18.1543 26.234 17.9008 27.5972 17.2649C27.8118 17.5656 28.1774 17.7565 28.5488 17.7277C28.7418 17.7179 31.3115 17.569 34.0278 16.4898C34.0141 16.6146 34.0215 16.7428 34.051 16.8699C34.1674 17.3643 34.5989 17.7174 35.1008 17.7289C35.3342 17.7363 39.9508 17.7938 42.7998 14.4941C43.899 17.1608 46.3671 21.5288 51.401 24.2707L52.1515 25.3179C52.1278 25.573 52.0975 25.8178 52.071 26.0686ZM54.995 30.0197C54.5049 31.2965 53.573 32.0719 52.9071 32.089C53.3004 30.4687 53.5828 28.7625 53.7818 27.003C53.9761 26.9063 54.1642 26.8546 54.3341 26.8546C54.4284 26.8546 54.5169 26.8701 54.5976 26.9017C55.0086 27.0639 55.1733 27.5779 55.2346 27.87C55.3663 28.499 55.2789 29.2827 54.995 30.0197ZM36.0621 32.319V29.8432C36.0621 29.3557 36.4527 28.9601 36.9342 28.9601C37.4157 28.9601 37.8063 29.3557 37.8063 29.8432V32.1189H39.1474C39.6288 32.1189 40.0195 32.5145 40.0195 33.0021C40.0195 33.4896 39.6288 33.8852 39.1474 33.8852H37.6087C36.7559 33.8852 36.0621 33.1826 36.0621 32.319ZM31.8948 26.6399C31.8948 27.5897 31.1344 28.3597 30.1964 28.3597C29.2585 28.3597 28.4982 27.5897 28.4982 26.6399C28.4982 25.69 29.2585 24.9201 30.1964 24.9201C31.1344 24.9201 31.8948 25.69 31.8948 26.6399ZM47.5835 26.6399C47.5835 27.5897 46.8231 28.3597 45.8853 28.3597C44.9473 28.3597 44.1869 27.5897 44.1869 26.6399C44.1869 25.69 44.9473 24.9201 45.8853 24.9201C46.8231 24.9201 47.5835 25.69 47.5835 26.6399ZM42.3098 37.7593C42.3098 39.1852 40.1046 39.6934 38.0408 39.6934C35.9775 39.6934 33.7723 39.1852 33.7723 37.7593C33.7723 37.2717 34.1629 36.8761 34.6444 36.8761C35.0333 36.8761 35.3626 37.1337 35.475 37.4902C35.7668 37.665 36.6844 37.9272 38.0408 37.9272C39.3977 37.9272 40.3153 37.665 40.6071 37.4896C40.7195 37.1337 41.0488 36.8761 41.4378 36.8761C41.9192 36.8761 42.3098 37.2717 42.3098 37.7593ZM86.0601 65.305C85.809 64.8572 85.4194 64.5252 84.9553 64.3341C85.0281 63.8482 84.9562 63.3371 84.6985 62.8775C84.4477 62.43 84.0583 62.0981 83.5937 61.9068C83.6663 61.421 83.5944 60.9098 83.337 60.45C83.0793 59.9902 82.682 59.6666 82.2322 59.4819C82.3052 58.9958 82.2338 58.4844 81.9767 58.0248C81.6803 57.497 81.1999 57.1187 80.6219 56.9577C80.0496 56.7979 79.4433 56.8738 78.922 57.1728L78.0382 57.6813C77.8698 57.4028 77.6472 57.1511 77.3743 56.9423V55.9768H82.3162C82.7977 55.9768 83.1883 55.5813 83.1883 55.0931C83.1883 54.6056 82.7977 54.21 82.3162 54.21H77.3743V53.3269H82.3162C82.7977 53.3269 83.1883 52.9313 83.1883 52.4437C83.1883 51.9561 82.7977 51.5606 82.3162 51.5606H77.3743V50.6774H82.3162C82.7977 50.6774 83.1883 50.2819 83.1883 49.7943C83.1883 49.3067 82.7977 48.9112 82.3162 48.9112H77.3743V48.028H82.3162C82.7977 48.028 83.1883 47.6325 83.1883 47.1449C83.1883 46.6573 82.7977 46.2618 82.3162 46.2618H77.3743L77.38 45.3786H82.3162C82.7977 45.3786 83.1883 44.983 83.1883 44.4955C83.1883 44.0079 82.7977 43.6123 82.3162 43.6123H77.38C76.3989 43.6123 75.6301 44.5173 75.6301 45.673V47.1449V49.7943V49.9277C75.5555 48.9244 75.1885 47.9166 74.5411 47.0489C72.9479 44.9118 70.2192 44.2661 68.4614 45.6115C67.5452 46.3123 67.0809 47.4185 67.0609 48.6179C65.9163 48.3089 64.7385 48.4584 63.8216 49.1595C62.9381 49.8345 62.4203 50.9298 62.401 52.1637C62.384 53.3062 62.7814 54.4819 63.5218 55.4755C64.2622 56.4679 65.2705 57.1774 66.3607 57.4729C66.7252 57.5718 67.0897 57.6201 67.4462 57.6201C68.2411 57.6201 68.9928 57.3786 69.6026 56.9117C69.6605 56.8674 69.7018 56.8091 69.7561 56.7617L72.4913 60.0837L71.503 62.2396C71.4275 62.3718 71.3588 62.5068 71.2978 62.6479L65.5476 65.9512L55.7365 49.6333C55.4958 49.2333 55.2028 48.8897 54.8879 48.5747C54.3685 47.8959 53.6187 47.4126 52.7491 47.2568C51.9021 46.9726 50.9992 46.8819 50.1049 47.0336V58.8691C50.3179 58.9361 50.5152 59.0342 50.6868 59.1645C51.0083 59.4088 51.2437 59.7527 51.3386 60.1579L51.5584 61.0907L55.6281 78.362V70.9649L58.8967 76.4017C59.9346 78.1277 61.7526 79.0867 63.6195 79.0867C64.5438 79.0867 65.4806 78.851 66.3402 78.3565L76.8111 72.3402C76.8542 72.3154 76.8876 72.2807 76.9299 72.2549C77.0123 72.26 77.094 72.2712 77.1767 72.2712C77.858 72.2712 78.5484 72.0975 79.1821 71.733L81.1505 70.6008L81.2708 70.7469C81.6683 71.2293 82.3695 71.311 82.8647 70.9323L83.2249 70.6568L83.6046 70.3665L83.9644 70.0914C84.3258 69.8151 84.4632 69.3441 84.3645 68.8894L85.2198 68.3971C85.7398 68.0981 86.1134 67.6117 86.2724 67.0264C86.4314 66.4422 86.3553 65.8305 86.0601 65.305ZM80.9858 61.2261L81.1454 61.1342C81.2204 61.0917 81.3044 61.0687 81.3884 61.0687C81.4327 61.0687 81.477 61.0756 81.5213 61.0871C81.6496 61.1227 81.7564 61.2067 81.8211 61.3228C81.9562 61.5631 81.8722 61.8713 81.6349 62.0082L81.4759 62.0996L80.3266 62.7608L79.3524 63.3214C79.2377 63.3858 79.1049 63.4019 78.9765 63.3685C78.8494 63.3329 78.7426 63.2489 78.6779 63.1328C78.5428 62.8913 78.6257 62.5843 78.863 62.4474L79.7621 61.9302L80.9858 61.2261ZM78.186 59.8511L78.2078 59.8038C78.2239 59.7685 78.2294 59.7313 78.2435 59.6957C78.2597 59.6543 78.2713 59.6122 78.2849 59.5704L79.3734 58.9441L79.7839 58.7079C79.86 58.6653 79.9429 58.6423 80.0281 58.6423C80.0723 58.6423 80.1166 58.6481 80.1598 58.6607C80.2881 58.6964 80.3948 58.7803 80.4596 58.8965C80.5437 59.0461 80.5346 59.2182 80.4647 59.3628C80.4223 59.4504 80.3629 59.5302 80.2733 59.5818L79.6469 59.9423L78.7584 60.4534L77.9909 60.895C77.8959 60.9493 77.7889 60.9611 77.6815 60.947L78.186 59.8511ZM68.2014 55.0328C67.7801 55.3524 67.2441 55.2748 66.9614 55.1978C66.3777 55.0397 65.8008 54.6234 65.3773 54.0559C64.9549 53.4884 64.7175 52.8123 64.7266 52.2005C64.7312 51.905 64.8016 51.3605 65.2228 51.0385C65.4341 50.8775 65.6941 50.8011 65.9757 50.8011C66.6593 50.8011 67.4746 51.249 68.0458 52.0154C68.8532 53.098 68.9236 54.4796 68.2014 55.0328ZM70.0171 50.5078C69.2109 49.4258 69.1393 48.0436 69.8627 47.4904C70.0739 47.3295 70.3328 47.253 70.6155 47.253C71.2991 47.253 72.1133 47.7015 72.6856 48.4679C73.1092 49.0354 73.3465 49.7115 73.3374 50.3227C73.3329 50.6188 73.2625 51.1627 72.8412 51.4847C72.4199 51.8044 71.8839 51.7267 71.6012 51.6497C71.0175 51.4916 70.4407 51.0753 70.0171 50.5078ZM72.2626 57.603C71.8648 57.0695 71.9695 56.3105 72.4962 55.9077C73.023 55.5049 73.7726 55.6108 74.1704 56.1443C74.3094 56.3308 74.3658 56.5453 74.3855 56.7621C74.0586 56.9768 73.7839 57.2666 73.6122 57.6385L73.4225 58.0522C72.9949 58.1279 72.5423 57.978 72.2626 57.603ZM79.118 69.738L78.3202 70.1967C77.2062 70.8407 75.7789 70.4416 75.1429 69.3113L72.9877 65.4705C72.6802 64.9224 72.6017 64.2859 72.7672 63.6778L72.7769 63.6566L73.0632 63.032L75.1941 58.3825C75.2554 58.2496 75.4229 58.163 75.6301 58.1431C75.7835 58.1284 75.9562 58.1461 76.1354 58.2307C76.315 58.3155 76.4397 58.4384 76.527 58.567C76.5468 58.5961 76.5702 58.6232 76.5851 58.6528C76.6588 58.7992 76.6764 58.9477 76.626 59.0586L74.8413 62.9379L74.4855 63.7112C74.4514 63.7851 74.4438 63.8626 74.4311 63.9394C74.3678 64.321 74.544 64.7128 74.9079 64.8841C75.0271 64.9404 75.152 64.9669 75.2747 64.9669C75.3991 64.9669 75.5181 64.9321 75.6301 64.8812V69.0767C75.6301 69.5643 76.0207 69.9598 76.5022 69.9598C76.9837 69.9598 77.3743 69.5643 77.3743 69.0767V66.0144L79.4782 68.5697L80.0153 69.2221L79.118 69.738ZM80.7139 65.7477C80.5981 65.8121 80.463 65.8316 80.3381 65.7948C80.2109 65.7592 80.1041 65.6752 80.0394 65.5591C79.9043 65.3176 79.9872 65.0106 80.2245 64.8737L81.3302 64.2376L82.3471 63.6525L82.507 63.5605C82.5819 63.518 82.6659 63.495 82.75 63.495C82.7942 63.495 82.8385 63.5019 82.8828 63.5134C83.01 63.549 83.1167 63.633 83.1815 63.7491C83.3166 63.9906 83.2337 64.2976 82.9964 64.4345L82.8373 64.526L81.8947 65.0683L80.7139 65.7477ZM84.5907 66.5584C84.5555 66.6872 84.4726 66.7953 84.3579 66.8608C84.3579 66.8608 84.3579 66.8608 84.3568 66.8608L83.9478 67.0963L83.4628 67.3757L82.0766 68.174C81.973 68.2347 81.8575 68.2454 81.748 68.2258C81.6067 68.2007 81.4759 68.1208 81.3998 67.9854C81.2647 67.7439 81.3487 67.4369 81.586 67.3001L82.8983 66.5451L83.2519 66.3415L83.8685 65.9869C83.9434 65.9443 84.0274 65.9213 84.1115 65.9213C84.1247 65.9213 84.1377 65.9257 84.1509 65.9269C84.1819 65.9296 84.213 65.9317 84.2432 65.9397C84.3715 65.9754 84.4771 66.0593 84.5441 66.1777C84.6088 66.2939 84.6259 66.4284 84.5907 66.5584ZM55.4579 92.1243L54.9723 80.6851C54.97 80.6552 54.9666 80.6253 54.9587 80.5954L50.2076 60.4305C50.19 60.3549 50.153 60.2867 50.1049 60.2249C49.9753 60.0585 49.7507 59.9498 49.499 59.9498H26.5826C26.3308 59.9498 26.1064 60.0591 25.9768 60.225C25.9288 60.2865 25.8917 60.3544 25.874 60.4293L21.7012 78.1418L21.1742 77.841L21.0519 77.7712C20.9154 77.6953 20.778 77.6332 20.6406 77.5703L24.5233 61.0892L24.6861 60.3982L24.743 60.1568C24.8381 59.7516 25.0737 59.408 25.3954 59.164C25.5668 59.0339 25.764 58.9359 25.9768 58.869V47.1946V47.0767C23.9421 46.4094 21.6208 46.9741 20.1219 48.7059L1.3718 70.3428C0.331642 71.5433 -0.1521 73.1359 0.0420781 74.7205C0.236256 76.3062 1.09075 77.731 2.38925 78.6371L13.1451 86.1438C13.4808 86.3782 13.8368 86.5545 14.1994 86.7044C14.6398 87.2164 15.1641 87.6538 15.7552 87.9871L19.545 90.1251L20.1132 90.4457L20.4535 90.6377L20.6533 90.7503C20.663 90.7559 20.6738 90.7573 20.6836 90.7626L20.6247 92.1256L20.5699 93.3917C20.5625 93.5642 20.6471 93.6918 20.7198 93.7689C20.8583 93.9161 21.0667 94 21.2904 94H54.7906C55.0143 94 55.2232 93.9161 55.3618 93.7689C55.4345 93.6918 55.5196 93.5642 55.5117 93.3917L55.4579 92.1243ZM13.7702 72.9945L20.4535 65.2823V77.4833C20.234 77.3921 20.0142 77.3207 19.7946 77.2607C19.6661 77.1524 19.5537 77.0309 19.4133 76.9329L13.7702 72.9945ZM26.8579 83.4541C26.779 83.5979 26.5928 83.6519 26.4543 83.5714C26.4537 83.5714 26.4537 83.5714 26.4537 83.5714L22.4895 81.3348C22.2696 81.211 22.0109 81.2185 21.7784 81.31C21.566 81.3935 21.3753 81.5463 21.2631 81.7488C21.1496 81.9535 21.1212 82.195 21.1842 82.4215C21.2472 82.6469 21.3965 82.8378 21.5987 82.9527L21.602 82.9546L26.3475 85.6332C26.4395 85.685 26.4747 85.7689 26.4872 85.8137C26.5002 85.8586 26.5139 85.9483 26.4616 86.0426C26.4111 86.1357 26.3288 86.1702 26.2839 86.184C26.2391 86.1967 26.1494 86.2105 26.0585 86.1587L21.4213 83.5413L21.3097 83.4783C21.2136 83.4241 21.1085 83.4002 21.0024 83.3914C20.8123 83.3755 20.6237 83.435 20.4535 83.5364C20.4378 83.5458 20.4213 83.5533 20.4061 83.5635C20.2761 83.6505 20.1585 83.7559 20.0821 83.8934C19.9692 84.0981 19.9408 84.3407 20.0038 84.5661C20.0577 84.759 20.1841 84.917 20.3435 85.0329C20.3704 85.0524 20.3892 85.081 20.4183 85.0973L20.4535 85.1173L20.4948 85.1405L20.9165 85.3784L24.3825 87.3339C24.475 87.3857 24.5102 87.4696 24.5227 87.5156C24.5358 87.5605 24.5494 87.649 24.4971 87.7433C24.446 87.8364 24.3643 87.8721 24.3194 87.8847C24.2757 87.8974 24.1871 87.9123 24.094 87.8594L20.8874 86.0508L20.4535 85.8061L20.314 85.7273L20.0731 85.5914L19.7457 85.4067L19.6864 85.3733C19.4099 85.2181 18.9875 85.2779 18.7178 85.4481C18.4561 85.6137 18.3005 85.9069 18.3079 86.2185C18.3121 86.3834 18.366 86.5368 18.4511 86.6709C18.5274 86.7911 18.628 86.8965 18.7553 86.9683L19.6576 87.4774L20.2259 87.7981L20.4535 87.9266L20.7979 88.1208L21.7917 88.6816C21.8831 88.7334 21.9178 88.8173 21.9308 88.8622C21.9433 88.907 21.9569 88.9967 21.9058 89.0899C21.8275 89.2325 21.6401 89.2888 21.5021 89.2072L20.7688 88.7934L20.4535 88.6155L20.1973 88.4709L19.629 88.1503L17.5529 86.979L16.6045 86.4439C15.7926 85.9862 15.1533 85.2537 14.8047 84.3809C14.3323 83.2011 14.3857 81.9109 14.9467 80.93C15.6297 79.7364 16.9441 78.8544 18.4067 78.8544C18.9994 78.8544 19.6168 79.0036 20.2259 79.3307C20.2435 79.3401 20.2611 79.3461 20.2786 79.3558L20.4535 79.4557L20.7535 79.6269L21.2804 79.9277L21.5933 80.1063L26.7421 83.0459C26.8347 83.0976 26.8699 83.1827 26.8824 83.2276C26.8954 83.2724 26.909 83.3621 26.8579 83.4541ZM48.4194 79.0749C48.3945 80.6264 46.9163 81.3036 46.1626 80.1055L45.4045 78.902C45.2029 79.616 44.896 80.2867 44.4989 80.8977C44.502 80.9926 44.5113 81.0856 44.5113 81.1814C44.5113 85.1846 41.6147 88.4302 38.0408 88.4302C34.467 88.4302 31.5703 85.1846 31.5703 81.1814C31.5703 81.0856 31.5797 80.9926 31.5828 80.8977C31.1851 80.2867 30.8782 79.616 30.6766 78.902L29.9191 80.1055C29.1654 81.3036 27.6872 80.6264 27.6616 79.0749C27.6498 78.3504 27.6243 77.5982 27.577 76.8611C27.412 74.2719 30.8925 73.058 32.461 72.6426C33.8564 71.6272 35.8363 71.1703 38.0408 71.1703C40.2448 71.1703 42.2253 71.6272 43.6207 72.6426C45.1892 73.058 48.6696 74.2719 48.5047 76.8611C48.4574 77.5982 48.4318 78.3504 48.4194 79.0749ZM35.3893 84.4515C35.3893 83.3608 36.5764 82.4766 38.0408 82.4766C39.5053 82.4766 40.6924 83.3608 40.6924 84.4515C40.6924 85.5422 39.5053 86.4264 38.0408 86.4264C36.5764 86.4264 35.3893 85.5422 35.3893 84.4515Z" fill="#124C5F"/>
</svg>
