<svg width="65" height="65" viewBox="0 0 65 65" fill="none" xmlns="http://www.w3.org/2000/svg">
<path d="M46.012 28.9786L52.0737 22.84C52.7946 23.0792 53.5498 23.2411 54.3494 23.2411H56.8095C60.886 23.2411 64.1899 19.8954 64.1899 15.7673C64.1899 11.6393 60.886 8.29347 56.8095 8.29347H56.0026V7.47384C56.0026 3.34579 52.6986 0 48.6222 0C44.5457 0 41.2418 3.34579 41.2418 7.47384V9.96511C41.2418 10.7748 41.4017 11.5396 41.6378 12.2695L35.5761 18.4081L46.012 28.9786Z" fill="#124C5F"/>
<path d="M18.178 36.0237L12.1162 42.1622C11.3954 41.923 10.6401 41.7611 9.84055 41.7611H7.38041C3.30396 41.7611 0 45.1069 0 49.2349C0 53.363 3.30396 56.7087 7.38041 56.7087H8.18734V57.5259C8.18734 61.6539 11.4913 64.9997 15.5677 64.9997C19.6442 64.9997 22.9482 61.6539 22.9482 57.5259V55.0346C22.9482 54.2249 22.7883 53.4601 22.5521 52.7302L28.6139 46.5917L18.178 36.0237Z" fill="#124C5F"/>
<path d="M56.8095 41.7613H54.3494C53.5498 41.7613 52.7945 41.9232 52.0737 42.1624L22.5545 12.2695C22.7907 11.5396 22.9506 10.7748 22.9506 9.96511V7.47384C22.9506 3.34579 19.6467 0 15.5702 0C11.4938 0 8.1898 3.34579 8.1898 7.47384V8.29097H7.38041C3.30396 8.29097 0 11.6368 0 15.7648C0 19.8929 3.30396 23.2386 7.38041 23.2386H9.84055C10.6401 23.2386 11.3954 23.0767 12.1162 22.8375L41.6354 52.7304C41.3992 53.4603 41.2393 54.2252 41.2393 55.0348V57.5261C41.2393 61.6542 44.5432 64.9999 48.6197 64.9999C52.6961 64.9999 56.0001 61.6542 56.0001 57.5261V56.709H56.807C60.8835 56.709 64.1874 53.3632 64.1874 49.2351C64.1874 45.1071 60.8859 41.7613 56.8095 41.7613Z" fill="#124C5F"/>
</svg>
