<svg width="82" height="67" viewBox="0 0 82 67" fill="none" xmlns="http://www.w3.org/2000/svg">
<path d="M58.3113 30.7838C57.8004 29.6197 56.9063 28.197 55.1182 27.0329C54.0963 26.3862 50.1368 25.8688 50.0091 29.4904C50.0091 29.4904 48.3486 29.7491 48.4764 30.9132C48.4764 30.9132 47.4546 34.4055 52.3082 34.0174C52.3082 34.0174 53.2023 40.6139 53.9686 42.0367C53.9686 42.0367 54.3518 43.3302 54.4795 44.6236H56.5231L56.6509 42.0367C56.6509 42.0367 57.8004 42.8128 58.6945 44.6236H61.6322C61.5045 43.5888 61.3768 42.6834 61.1213 42.0367C61.1213 42.0367 65.464 42.0367 66.9967 40.0966C66.9967 40.0966 68.274 42.5541 69.8067 42.6834V44.7529H71.8504C71.9781 44.3649 71.9781 43.9769 72.1058 43.3302C72.1058 43.3302 72.8722 43.7182 73.2554 44.7529H75.0435C74.7881 43.8475 72.489 35.4402 71.7226 34.7935C71.7226 34.7935 72.8722 34.6641 73.2554 36.0869C73.2554 36.0869 73.894 39.0618 75.1713 38.9325C75.1713 38.9325 76.0653 36.9923 74.5326 34.5348C74.5326 34.5348 73.894 32.724 70.5731 32.9827L60.9936 32.724C59.7163 32.4653 58.8222 31.6892 58.3113 30.7838Z" fill="#124C5F"/>
<path d="M46.6883 20.8241C47.4546 19.7894 47.3269 18.2373 46.3051 17.3319C45.2833 16.5558 43.7506 16.6851 42.8565 17.7199C40.4297 20.8241 36.087 21.3415 33.0215 20.0481L31.3611 24.7044C36.5979 26.7739 42.9842 25.7392 46.6883 20.8241Z" fill="#124C5F"/>
<path d="M24.9747 12.6757C28.4312 12.6757 31.2333 9.83812 31.2333 6.33783C31.2333 2.83754 28.4312 0 24.9747 0C21.5182 0 18.7161 2.83754 18.7161 6.33783C18.7161 9.83812 21.5182 12.6757 24.9747 12.6757Z" fill="#124C5F"/>
<path d="M28.6788 46.0463L23.3142 43.8474L26.5074 34.6641C19.3547 30.6544 16.8002 24.3166 16.6725 23.9285C15.9061 21.9884 16.8002 19.9189 18.7161 19.1428C20.632 18.3668 22.6756 19.2722 23.442 21.2123C23.5697 21.471 25.1024 24.8339 29.0619 27.5502L31.4888 20.8243C31.7442 20.0482 31.6165 19.2722 31.1056 18.6255C26.5074 13.4517 21.1429 11.5116 15.2675 13.3224C13.607 13.8397 12.4575 15.1332 12.0743 16.8146L6.96522 43.7181C6.96522 43.8474 6.96522 43.8474 6.96522 43.9768C6.96522 44.1061 6.96522 44.3648 6.96522 44.4942L7.22068 56.7818L4.41069 56.1351C2.49479 55.747 0.45116 57.0405 0.0679794 58.9806C-0.315201 60.9208 0.962067 62.9903 2.87797 63.3783L10.1584 64.9304C11.3079 65.1891 12.3297 64.9304 13.2238 64.1544C14.1179 63.3783 14.6288 62.3436 14.5011 61.1795L14.2456 48.2451L23.5697 51.9961V63.249C23.5697 65.3185 25.2301 66.9999 27.2738 66.9999C29.3174 66.9999 30.9778 65.3185 30.9778 63.249V49.5386C31.1056 47.9864 30.0838 46.693 28.6788 46.0463Z" fill="#124C5F"/>
<path d="M38.5137 31.9478C26.3797 31.0424 22.5479 22.1177 22.4201 21.7296C21.9092 20.4362 20.5042 19.9188 19.227 20.4362C17.9497 20.9536 17.4388 22.3763 17.9497 23.6698C18.2052 24.1872 23.0588 35.8281 38.2583 36.9922C39.6633 37.1215 40.8128 36.0868 40.8128 34.664C40.8128 33.2412 39.9187 32.0771 38.5137 31.9478Z" fill="#124C5F"/>
<path d="M60.355 15.1332C57.8004 15.6506 55.8845 17.9788 55.8845 20.695H67.2522C67.2522 17.7201 65.0808 15.3919 62.2709 15.0039C58.4391 10.7356 52.3082 12.417 47.4546 16.6854C47.71 16.944 47.9655 17.3321 48.2209 17.7201C51.6695 14.4865 56.3954 12.2877 60.355 15.1332Z" fill="#124C5F"/>
<path d="M79.7695 45.7876H43.8783C42.8565 45.7876 41.9624 46.693 41.9624 47.7278C41.9624 48.7625 42.8565 49.6679 43.8783 49.6679H44.2615V52.9015C44.2615 57.9459 48.3488 62.0849 53.3301 62.0849H70.5732C75.5546 62.0849 79.6418 57.9459 79.6418 52.9015V49.6679H80.025C81.0468 49.6679 81.9409 48.7625 81.9409 47.7278C81.6854 46.5637 80.7914 45.7876 79.7695 45.7876Z" fill="#124C5F"/>
<path d="M56.9063 23.2819L57.0341 22.1178C57.0341 21.7298 56.9063 21.4711 56.5232 21.4711C56.14 21.4711 55.8845 21.6004 55.8845 21.9884L55.7568 23.1525C55.7568 23.5406 55.8845 23.7993 56.2677 23.7993C56.5232 23.7993 56.7786 23.5406 56.9063 23.2819Z" fill="#124C5F"/>
<path d="M55.3736 24.8339L55.2459 25.998C55.2459 26.3861 55.3736 26.6447 55.7568 26.6447C56.14 26.6447 56.3955 26.5154 56.3955 26.1274L56.5232 24.9633C56.5232 24.5752 56.3955 24.3166 56.0123 24.3166C55.7568 24.3166 55.5014 24.5752 55.3736 24.8339Z" fill="#124C5F"/>
<path d="M59.7162 23.7991C60.0994 23.7991 60.3549 23.5404 60.3549 23.1524V21.859C60.3549 21.4709 60.0994 21.2123 59.7162 21.2123C59.333 21.2123 59.0776 21.4709 59.0776 21.859V23.1524C59.0776 23.4111 59.4608 23.7991 59.7162 23.7991Z" fill="#124C5F"/>
<path d="M58.95 26.1274C58.95 26.5154 59.2054 26.7741 59.5886 26.7741C59.9718 26.7741 60.2272 26.5154 60.2272 26.1274V24.8339C60.2272 24.4459 59.9718 24.1872 59.5886 24.1872C59.2054 24.1872 58.95 24.4459 58.95 24.8339V26.1274Z" fill="#124C5F"/>
<path d="M63.165 21.3417C62.7818 21.3417 62.5264 21.6004 62.5264 21.9884V23.2819C62.5264 23.6699 62.7818 23.9286 63.165 23.9286C63.5482 23.9286 63.8036 23.6699 63.8036 23.2819V21.9884C63.8036 21.6004 63.5482 21.3417 63.165 21.3417Z" fill="#124C5F"/>
<path d="M62.7819 24.9633V26.2567C62.7819 26.6447 63.0373 26.9034 63.4205 26.9034C63.8037 26.9034 64.0591 26.6447 64.0591 26.2567V24.9633C64.0591 24.5752 63.8037 24.3166 63.4205 24.3166C62.9096 24.3166 62.6541 24.5752 62.7819 24.9633Z" fill="#124C5F"/>
<path d="M66.4858 21.3417C66.1026 21.3417 65.9749 21.7297 65.9749 21.9884L66.1026 23.1525C66.1026 23.4112 66.3581 23.6699 66.7413 23.6699C67.1244 23.6699 67.3799 23.2819 67.3799 22.8938L67.1244 21.8591C67.1244 21.4711 66.7413 21.2124 66.4858 21.3417Z" fill="#124C5F"/>
<path d="M66.3583 25.0926L66.486 26.2567C66.486 26.5154 66.8692 26.7741 67.1246 26.7741C67.5078 26.7741 67.7633 26.3861 67.6356 26.1274V24.8339C67.6356 24.4459 67.2524 24.3166 66.9969 24.3166C66.6137 24.4459 66.3583 24.7046 66.3583 25.0926Z" fill="#124C5F"/>
</svg>
