<svg width="65" height="72" viewBox="0 0 65 72" fill="none" xmlns="http://www.w3.org/2000/svg">
<path d="M13.0295 56.7451L15.442 48.0834L14.5648 45.5293C12.7005 45.1962 11.1653 44.1967 10.1784 42.8642L6.88859 54.5242L0.418679 66.1842C-0.458598 67.7388 0.0897001 69.7377 1.62493 70.6261C3.16017 71.5145 5.13404 70.9592 6.01132 69.4046L12.8102 57.4114C12.9199 57.1893 13.0295 56.9672 13.0295 56.7451Z" fill="#124C5F"/>
<path d="M2.06368 32.87C3.05062 33.4253 4.36653 32.9811 4.91483 31.8706L9.84951 21.6542L10.7268 20.9879L11.1654 18.2118C11.3847 16.7681 12.0427 15.4356 12.92 14.3251L6.99836 18.2118C6.66938 18.4338 6.45007 18.767 6.23075 19.1001L1.07675 29.8718C0.528451 30.9822 0.967088 32.3148 2.06368 32.87Z" fill="#124C5F"/>
<path d="M20.4863 11.9931C23.7567 11.9931 26.4079 9.30839 26.4079 5.99657C26.4079 2.68476 23.7567 0 20.4863 0C17.2158 0 14.5646 2.68476 14.5646 5.99657C14.5646 9.30839 17.2158 11.9931 20.4863 11.9931Z" fill="#124C5F"/>
<path d="M59.0866 56.7451C59.0866 56.7451 59.1963 56.8562 59.1963 56.9672C60.0736 56.412 60.4025 55.1905 60.4025 55.1905C63.6923 56.1899 64.3503 53.0806 64.3503 53.0806C64.7889 52.1922 62.5957 51.3038 62.5957 51.3038C62.4861 49.0829 59.9639 48.4166 59.9639 48.4166C58.7576 47.3061 59.0866 48.4166 59.0866 48.4166C57.8804 48.3055 57.1128 48.7497 57.1128 48.7497C55.1389 46.8619 53.9326 49.7491 53.9326 49.7491C53.6036 49.7491 53.3843 49.8602 53.0553 49.8602C55.0292 52.5253 57.1128 54.8573 59.0866 56.7451Z" fill="#124C5F"/>
<path d="M61.828 63.5192C61.2797 62.9639 57.332 60.5209 57.332 60.5209C58.2093 60.0767 58.3189 58.1889 58.3189 57.5226C56.2354 55.5237 54.0422 52.9696 51.849 50.0824C50.7524 50.3045 43.5149 53.4138 36.4967 50.1935C33.8648 48.9719 31.562 50.7487 31.562 50.7487C29.5881 53.0807 30.4654 56.8563 30.4654 56.8563L33.2069 53.858C34.6325 52.7475 35.1808 52.9696 35.5097 53.5249C35.7291 53.9691 35.6194 54.5243 35.2904 54.9685C32.6586 57.7447 33.5359 60.6319 33.5359 60.6319L29.8074 63.9634C28.3819 65.518 30.0268 66.7395 30.0268 66.7395C30.3557 65.518 32.9876 63.6302 32.9876 63.6302C32.8779 65.0738 33.5359 65.407 33.5359 65.407C35.4001 64.8517 34.9614 62.9639 34.9614 62.9639C37.9222 62.8529 38.2512 61.5203 38.2512 61.5203C41.212 62.0756 42.6376 60.0767 42.6376 60.0767C43.4052 61.5203 50.0945 63.075 50.0945 63.075C50.5331 63.2971 53.0553 68.4053 53.0553 68.4053C53.6036 68.5163 54.1519 69.2936 54.1519 69.2936C55.3581 70.071 57.8803 69.1826 57.8803 69.1826C57.661 68.1832 56.345 68.1832 56.345 68.1832C53.3842 68.1832 53.8229 63.186 53.8229 63.186C53.9325 62.5197 56.2354 63.7413 56.2354 63.7413L61.2797 65.6291C63.8019 66.9616 64.8985 65.407 64.8985 65.407C65.6661 64.1855 61.828 63.5192 61.828 63.5192Z" fill="#124C5F"/>
<path d="M37.0448 23.9862C39.567 29.6496 44.9403 40.8654 51.8489 49.9714C52.1779 49.8603 52.6165 49.8603 53.0551 49.7493C52.9455 49.6382 52.8358 49.5272 52.7262 49.3051C45.8176 40.3102 40.4443 29.0944 38.0318 23.542C37.5931 23.8752 37.1545 23.9862 37.0448 23.9862Z" fill="#124C5F"/>
<path d="M36.9353 22.8757C38.0319 22.4316 38.6898 21.21 38.2512 20.0996C37.8126 18.9891 36.6063 18.3228 35.5097 18.767L29.5881 20.8769C22.6795 14.3251 22.3506 13.2146 19.6091 12.7704C16.1 12.2152 12.8102 14.7693 12.2619 18.3228L9.63005 36.9788C9.08175 40.5323 11.6039 43.8637 15.113 44.419C15.2227 44.419 15.3323 44.419 15.442 44.419L18.2932 53.0807L12.4812 61.7424C11.4943 63.186 11.8232 65.2959 13.3585 66.2954C14.784 67.2948 16.8676 66.9617 17.8545 65.407L24.6534 55.4127C25.2017 54.5243 25.421 53.5249 25.092 52.5255L21.4733 41.5317C22.0216 40.7544 22.4602 39.755 22.5699 38.7556L24.9824 22.2095L27.7239 24.8746C28.2722 25.4298 29.1494 25.6519 29.9171 25.3188L36.9353 22.8757Z" fill="#124C5F"/>
</svg>
